# xmcd
# 
# Track frame offsets:
#     150
#     13303
#     26379
#     40828
#     66454
#     92151
#     147262
#     160474
#     181830
#     208429
# 
# Disc length: 3318
# 
# Revision: 9
# Processed by: cddbd v1.5.2PL0 Copyright (c) Steve Scherf et al.
# Submitted via: fre:ac v1.0.31
# 
DISCID=910cf40a
DTITLE=Tom Petty - The Live Anthology Disc 2
DYEAR=2009
DGENRE=Rock/Pop
TTITLE0=Diddy Wah Diddy (1997-02-01, San Francisco)
TTITLE1=I Want You Back Again (1997-02-07, San Francisco)
TTITLE2=Wildflowers (1995-03-17, Toronto)
TTITLE3=Friend of the Devil (1997-02-03, San Francisco)
TTITLE4=A Woman In Love (It's Not Me) (1981-06-29, Los Angeles)
TTITLE5=It's Good To Be King (2006-09-21, Gainesville)
TTITLE6=Angel Dream (No. 2) (2003-04-19, Chicago)
TTITLE7=Learning To Fly (2006-06-16, Bonnaroo)
TTITLE8=Mary Jane's Last Dance (2006-09-21, Gainesville)
TTITLE9=Mystic Eyes (2006-10-27, Berkeley)
EXTD=
EXTT0=
EXTT1=
EXTT2=
EXTT3=
EXTT4=
EXTT5=
EXTT6=
EXTT7=
EXTT8=
EXTT9=
PLAYORDER=
